<svg xmlns="http://www.w3.org/2000/svg" viewBox="0 0 242.98 38.25">
    <defs>
        <style>
            .cls-1 {
            fill: #be1420;
            }

            .cls-2 {
            fill: #fff;
            }

            .cls-3 {
            fill: #575656;
            }
        </style>
    </defs>
    <title>9a-logo</title>
    <g id="Layer_2" data-name="Layer 2">
        <g id="Layer_1-2" data-name="Layer 1">
            <rect class="cls-1" width="86.98" height="38.25"/>
            <path class="cls-2"
                  d="M71.93,28.93c.19,0,.29-.09.35-.29L78.11,9.8c.08-.2,0-.31-.21-.31H73.51a.34.34,0,0,0-.35.29L70,21.5h-.08L66.68,9.78a.33.33,0,0,0-.34-.29H61.93c-.25,0-.33.11-.25.31l5.84,18.84a.33.33,0,0,0,.35.29Zm-22.4-.29c0,.2.08.29.27.29H62.17c.19,0,.27-.09.27-.29V24.76c0-.2-.08-.29-.27-.29H54.43a.15.15,0,0,1-.17-.17V9.78c0-.2-.08-.29-.26-.29H49.8c-.19,0-.27.09-.27.29Zm-7.15,0c0,.2.08.29.27.29h3.74c.19,0,.27-.09.27-.29V24.7c0-.2-.08-.29-.27-.29H42.65c-.19,0-.27.09-.27.29ZM32,15.41H32l1.69,6.06H30.18ZM23.16,28.64c-.05.2,0,.29.19.29h4.41a.34.34,0,0,0,.35-.29l.86-3h5.94l.86,3a.33.33,0,0,0,.35.29h4.43c.19,0,.25-.09.19-.29L34.56,9.78c-.06-.2-.16-.29-.35-.29H29.83a.33.33,0,0,0-.35.29Zm-7.9-10.95a2.09,2.09,0,0,1-2.1-2.31,2.09,2.09,0,1,1,4.17,0A2.12,2.12,0,0,1,15.26,17.69ZM11.38,28.62c-.08.2,0,.31.19.31h4.22a.37.37,0,0,0,.35-.2l4.06-8.09a12.14,12.14,0,0,0,1.45-5.23,6,6,0,0,0-1.8-4.55,6.33,6.33,0,0,0-4.59-1.71,6.39,6.39,0,0,0-4.66,1.74,6.06,6.06,0,0,0-1.77,4.57,6.27,6.27,0,0,0,1.48,4.35,4.86,4.86,0,0,0,3.79,1.66,2.86,2.86,0,0,0,.89-.14l0,0Z"/>
            <path class="cls-3"
                  d="M229.49,9.09H243v3.68h-9.26v4.88h7.42v3.61h-7.42v5H243v3.68H229.49ZM214.25,23v7H210V9.09h8.09c4.76,0,7.36,2.12,7.36,6.87a6.61,6.61,0,0,1-3.06,6l3,8h-4.63l-2.42-7Zm3.86-10.24h-3.86v6.62h3.92c2.12,0,3-1.47,3-3.31C221.15,14,220.14,12.71,218.11,12.71Zm-29.46,6.93c0-7,2.09-10.91,8.65-10.91s8.64,3.86,8.64,10.91-2.08,10.67-8.64,10.67S188.65,26.69,188.65,19.64Zm12.94,0c0-4.81-.86-7.24-4.29-7.24s-4.3,2.43-4.3,7.24.86,7,4.3,7S201.59,24.45,201.59,19.64ZM172,9.09h15.33v3.74h-5.52V29.94h-4.23V12.83H172Zm-3.42,3.8s-4.32-.49-6.1-.49c-2.27,0-3.34.83-3.34,2.21s.83,1.78,4.32,2.88c4.51,1.44,5.89,2.7,5.89,6.17,0,4.53-3.1,6.65-7.21,6.65a38.88,38.88,0,0,1-7-.95l.43-3.28s4.11.55,6.29.55,3.25-1.07,3.25-2.7c0-1.29-.74-1.87-3.74-2.73-4.69-1.35-6.47-2.94-6.47-6.28,0-4.33,2.88-6.19,7.11-6.19a44,44,0,0,1,6.87.82Zm-34,11v6.07h-4.23V9.09H138c4.9,0,7.42,2.39,7.42,7.24s-2.52,7.54-7.42,7.54ZM138,20.25c2.11,0,3.15-1.29,3.15-3.92s-1-3.62-3.15-3.62h-3.41v7.54ZM112.13,9.09h15.33v3.74h-5.52V29.94h-4.23V12.83h-5.58ZM99.44,23.87v6.07H95.21V9.09h7.66c4.91,0,7.42,2.39,7.42,7.24s-2.51,7.54-7.42,7.54Zm3.4-3.62C105,20.25,106,19,106,16.33s-1-3.62-3.16-3.62h-3.4v7.54Z"/>
        </g>
    </g>
</svg>
